<svg id="Layer_1" data-name="Layer 1" xmlns="http://www.w3.org/2000/svg" viewBox="0 0 192.13 107.52"><defs><style>.cls-1{fill:#791157;}.cls-2{fill:#f9cacd;}.cls-3{fill:#4b2f69;}.cls-4{fill:#b74488;}.cls-5{fill:#e6a8bb;}.cls-6{fill:#fc74c7;}.cls-7{fill:#643e8c;}.cls-8{fill:#7347a1;}.cls-9{fill:#5d3c7e;}.cls-10{fill:#6d1250;}.cls-11{fill:#b22a7c;}.cls-12{fill:#e04fa7;}.cls-13{fill:#872568;}.cls-14{fill:#e655ac;}.cls-15{fill:#f8c9d7;}.cls-16{fill:#fdd3e0;}.cls-17{fill:#dc3298;}.cls-18{fill:#e3bd65;}.cls-19{fill:#1f0416;}.cls-20{fill:#fdfdfd;}.cls-21{fill:#fc5ebe;}.cls-22{fill:#dc989e;}.cls-23{fill:#e7aabd;}.cls-24{fill:#fdfdfb;}.cls-25{fill:#f6e8ef;}.cls-26{fill:#c5b9be;}.cls-27{fill:#e7dadb;}.cls-28{fill:#c0878c;}.cls-29{fill:#fade91;}.cls-30{fill:#fce8b3;}</style></defs><title>GATO</title><path class="cls-1" d="M145.36,61.52a27.4,27.4,0,0,1,3.94,1.56A34.25,34.25,0,0,1,153,65.86l.45-.23-1.57-4.14c.9.6,1.64,1.12,2.41,1.6a8.71,8.71,0,0,0,1,.47l.92,1.24,2.09,5.68c.14-.22.28-.33.28-.44-.08-1.74-.17-3.48-.27-5.23h.32c2.85,1.19,3.74,3.69,4.19,6.43.32,1.93.53,3.87.82,6l2.18-1.89.33-.3v0l2.06-1.25,2.13-.74c2.53-.15,5.08-.63,7.54.45-1.18.31-2.37.57-3.53.93-2.11.64-4.44.88-5.8,3l-.07.12.06-.13,11.38-1.24,3,.34,3,1.8-6.17.55.06.35,7.25,1.2c1,.67,2.1,1.28,3.05,2a21,21,0,0,1,2,2l-.28.35-2-1c-.56-1.63-3.18-2.76-5.43-2.18l2.77,1.77L189,86.74l-2.84-1.44-.25.29a11.89,11.89,0,0,1,3.44,7.5c0,.11.31.19.47.28L189.18,96l-.26,0L188,92.8c.09-.11.27-.24.26-.34-.77-4-2.73-7.29-6.45-9.23-2.14-1.12-4.47-.43-5.22,1.81a7.56,7.56,0,0,0,0,4.88c1.91,4.63,5.73,7.56,10,9.87a13.09,13.09,0,0,0,2.7.78c3.11,1.67,6.54,1.68,9.93,1.8,1.17,0,2.35-.3,3.76-.16L199.28,105l2,.41c4,.87,7.35,2.6,9.28,6.41a8.62,8.62,0,0,1,.46,1.63l-.31.24-4.55-3.43-.35.36c2.42,2.1,3.69,4.61,2.85,8.13l-1.92-3.82-.43.12c1,3,1.51,6-.67,8.69a13.12,13.12,0,0,1-2.83,2l-.6-4.77c0-.47-.09-.95-.11-1.42-.09-2.1-.05-4.24-1.39-6.06-3.8-5.7-9.46-7.68-15.91-7.38-3.71.18-7.39,1.25-11.08,1.91a40.48,40.48,0,0,1-5.32.84c-5.28.22-10.16-1.46-15-3.39a3.4,3.4,0,0,1-.46-.58c-1.9-3.9-5.17-6.1-9.19-7.36a13.1,13.1,0,0,0,7.7-6.28c2.7-4.55,0-11.9-6.58-11.4-.4,0-.8,0-1.2,0-3.43.38-6.45,1.49-8.1,4.84C133.31,89.32,135,94,140,97l-1.85.26a6.37,6.37,0,0,0-.69-.56,20.32,20.32,0,0,1-8.65-10.57c-1.21-3.17-2.49-6.33-4-9.37a47.28,47.28,0,0,0-3.53-5.31c-3.54-3.93-8-4.48-12.9-3.59a9,9,0,0,0-1.46.22c-6.51,2.1-9.92,6.82-11.17,13.33-.17-.39-.51-.78-.48-1.15.1-1.45.31-2.9.49-4.35l0-.17a.38.38,0,0,0,0-.26l1.33-3.56-.34-.17L95.34,72.9a4.12,4.12,0,0,1,1-5.07,13.39,13.39,0,0,1,9.41-4l.07-.37-4.85-1c2.16-1.41,4.41-1.21,6.53-.95s4.19,1,6.47,1.37c-.83-.6-1.61-1.26-2.49-1.77-.68-.4-1.52-.55-2.2-.95-.3-.18-.38-.71-.56-1.09h2.7a15.92,15.92,0,0,1,2.53,1.1,49.63,49.63,0,0,1,4.58,3.31c3.38,2.79,6.68,5.67,10,8.51.09.22.11.55.28.66,3.08,2.12,6.39,3.4,10.22,2.8,1.42-.22,2.83-.49,4.24-.73-1.48,1.22-3.19,2.21-4.38,4.29l4.32-1.9c2.28-1,4.64-.09,6.95-.3a3.87,3.87,0,0,1,3.44,1.48c.84,1,1.55,2.13,2.33,3.21,2.14-3.74,0-8.43-4.4-8.55a38.62,38.62,0,0,0-6.46.87,31,31,0,0,0,1.82-3.34c.66-1.63-.05-3.14-1.79-3.35a31.34,31.34,0,0,0-5.44.16c-.11,0-.2.3-.3.46L134.26,69l0,0a6.58,6.58,0,0,1,5-2.85c1.53-.16,3.08,0,5.05,0a9.77,9.77,0,0,0-5.42-2.63,42.74,42.74,0,0,0-5.64-.45c1.16-1,2.71-1,4.22-1.12l2.82-.14c.16.18.29.44.5.52,2.09.86,4.18,1.68,6.61,2.65Zm-6.92,17.71a.45.45,0,0,0,.12,0s0-.05,0-.08l-.14.13-.07.11ZM159,105.95a15.39,15.39,0,0,0,8.12-2.31,8.34,8.34,0,0,0-.05-14c-4.63-3.1-10.27-2-13.95,2.69-1.94,2.48-2.77,5.11-1.23,8.06C153.54,103.62,156,105.86,159,105.95Zm14.32-10.42c2.23-4.49,2.4-9.72-1.45-12.48-3-2.16-8.17-1.48-10.92,1.54,3.29-.52,6.38-.21,8.84,2.18S172.88,92.12,173.27,95.53Z" transform="translate(-18.87 -59.11)"/><path class="cls-2" d="M30.25,114.09a52,52,0,0,1,2-6.35A34.37,34.37,0,0,1,39.5,97.17a40.28,40.28,0,0,1,14.86-9.23c3.57-1.23,7.24-2.17,10.86-3.26.57-.17,1.11-.41,1.67-.62a3,3,0,0,0,.82.19q4.11-.23,8.21-.51a16,16,0,0,0,1.74-.31l6.21.43c-3.8,2.87-6.37,6-6.78,10.43-.17.62-.38,1.23-.5,1.86-.81,4.35.76,8.31,2,12.31l2.23,8.06L82,123.73v3.61c-.77,5.75-4.46,9.33-9.15,12.08-6,3.54-12.58,3.88-19.31,2.83a26.73,26.73,0,0,1-16-8.07c-1.32-1.42-2.41-3-3.61-4.57A27.65,27.65,0,0,1,30.25,114.09Z" transform="translate(-18.87 -59.11)"/><path class="cls-3" d="M33.9,129.6c1.2,1.53,2.29,3.16,3.61,4.57a26.73,26.73,0,0,0,16,8.07c6.73,1.05,13.28.71,19.31-2.83,4.7-2.75,8.38-6.33,9.15-12.08l8.39,4.22c-.14.43-.24.87-.41,1.28a32.47,32.47,0,0,0-1.12,23.06l-8.34-2.72c-.18-.62-.33-1.26-.56-1.86-1.12-2.91-1.74-5.76,0-8.74.63-1.08.64-2.52.94-3.79-.47,0-.59,0-.62.07a20.29,20.29,0,0,1-10.14,10.76c-6.7,3.44-13.87,3.82-21.18,3A26,26,0,0,1,30.8,143c.17-.71.34-1.43.52-2.14.35-1.38.72-2.75,1-4.13C32.89,134.33,33.39,132,33.9,129.6Z" transform="translate(-18.87 -59.11)"/><path class="cls-4" d="M30.8,143a26,26,0,0,0,18.14,9.68c7.31.78,14.48.4,21.18-3a20.29,20.29,0,0,0,10.14-10.76c0-.07.15-.11.62-.07-.3,1.27-.31,2.71-.94,3.79-1.73,3-1.11,5.83,0,8.74.23.6.37,1.24.56,1.86-1.28-.39-2.6-.71-3.84-1.2-.91-.35-1.38-.09-2,.59a83.2,83.2,0,0,1-7.92,7.91c-4.4,3.53-9.75,5-15.28,5.63a31.89,31.89,0,0,1-13.63-1.47c-.74-.4-1.46-.85-2.22-1.2-5.35-2.48-9.56-6.13-12-11.61,3-1.15,5.41-2.9,6.09-6.33a20.64,20.64,0,0,1,.84-2.54Z" transform="translate(-18.87 -59.11)"/><path class="cls-5" d="M200.7,113.49c1.33,1.82,1.29,4,1.39,6.06,0,.47.07.95.11,1.42a3.27,3.27,0,0,0-.53.87c-1.27,5.6-4.88,9.52-9.24,12.89-1.54,1.19-3.16,2.29-4.71,3.46a4.08,4.08,0,0,0-.69.93l-3.64,1.7L181.09,142l-3.65,1.5-4.14,1.23c-1.36-.1-1.22,1.13-1.66,1.86l-2.26,1.15-.54.71-2.42-1c-1-1.88-2.77-1-4.24-1.2l-.57.3h-2.4l-1.13,0-4.78-.05c-1-.12-2-.84-2.81.37l-.25,0c-.43-.29-.84-.78-1.31-.85-2.08-.3-4.18-.47-6.26-.69l-4.19-1.18-3.35-.9-1.77-.62-6.61-3.15-.91-.73c-.57-.32-1.14-.63-1.69-1l-6.37-3.91c-.06-.14-.08-.31-.18-.4q-4.36-4-8.75-8a2.43,2.43,0,0,0-.66-.3c-.62-.88-1.22-1.76-1.85-2.63q-2.11-2.93-4.25-5.84a3.22,3.22,0,0,0-.14-.71q-2.47-5.47-5-10.93L94.87,94,95.25,84l.52-2.65c1.25-6.51,4.66-11.23,11.17-13.33a9,9,0,0,1,1.46-.22l-2.47,2.29c-5.58,5.21-7.4,12-8,19.28a43.28,43.28,0,0,0,1.15,12.76A47.83,47.83,0,0,0,114,127.91c1.34,1.23,2.89,2.22,4.35,3.33h0l.31.31h0L121,133h0l.31.31h0l.31.31h0l.61.31h0l.61.31h0l.31.31h0l.64.31H124l.6.59h0l.63.31h.28l.31.3h0l.61.31h0l.61.31h0l.31.31h0l.61.31h.31l.58.27.61.34h0l4.82,2.4c.76.24,1.54.44,2.28.74a52.28,52.28,0,0,0,17.6,3.69,49.35,49.35,0,0,0,11.88-.92c11.21-2.31,21.15-7.12,28.71-16.05a22.41,22.41,0,0,0,4.86-9C200,117,200.33,115.22,200.7,113.49Z" transform="translate(-18.87 -59.11)"/><path class="cls-6" d="M125.82,138.77l.91.73a14,14,0,0,0-.27,8c1.23,6,5.58,10.35,11.08,11.19a8.85,8.85,0,0,1-1,1.62c-.89.89-1.88,1.68-2.83,2.5l-4.31,2.4c-.5-.2-1-.45-1.5-.61a13.89,13.89,0,0,1-9.58-9.53,18.91,18.91,0,0,1-.25-11.18v0l.26-.29c2.34-1.4,4.68-2.8,7-4.22A2.91,2.91,0,0,0,125.82,138.77Z" transform="translate(-18.87 -59.11)"/><path class="cls-7" d="M177.44,143.48l3.65-1.5c.3.46.59.92.9,1.38,4.24,6.32,3.42,14-4.72,17.8a19.34,19.34,0,0,1-9,1.66A10.38,10.38,0,0,1,162.5,159L161,155.24q0-1.17,0-2.34c.65.46,1.28.95,1.94,1.38a6.12,6.12,0,0,0,6.14.62A14.49,14.49,0,0,0,177.44,143.48Z" transform="translate(-18.87 -59.11)"/><path class="cls-4" d="M88.85,155.9A32.47,32.47,0,0,1,90,132.84c.17-.41.27-.85.41-1.28l.26,0a12.5,12.5,0,0,1,1.77.77,2,2,0,0,1,.9,1c.47,2.12.71,4.31,1.3,6.4s1.56,4.36,2.36,6.54l0,.64a18,18,0,0,0-.14,2.24c.17,3.1-.56,6.44,2.25,8.87Z" transform="translate(-18.87 -59.11)"/><path class="cls-8" d="M118,143.85a18.91,18.91,0,0,0,.25,11.18,13.89,13.89,0,0,0,9.58,9.53c.51.16,1,.4,1.5.61-3.78,1.87-7.66,1.77-11.61.64l-3.9-2.75h-.31a33.2,33.2,0,0,1-1.79-4.2C110.3,153.68,113,147.27,118,143.85Z" transform="translate(-18.87 -59.11)"/><path class="cls-8" d="M30.8,143l-.26,0a3.76,3.76,0,0,0-.35-.66,20.29,20.29,0,0,1-4.77-15.38,3.28,3.28,0,0,0-.28-1.07l1.17-4.31c1-2.14,2-4.29,3-6.41a4.78,4.78,0,0,1,.95-1A27.64,27.64,0,0,0,33.9,129.6c-.51,2.36-1,4.73-1.55,7.09-.31,1.38-.69,2.75-1,4.13C31.14,141.54,31,142.25,30.8,143Z" transform="translate(-18.87 -59.11)"/><path class="cls-4" d="M161,155.24,162.5,159c-9.21,4.35-18.88,5.18-28.85,3.76,1-.83,1.94-1.62,2.83-2.5a8.83,8.83,0,0,0,1-1.62l1.85-1A46.53,46.53,0,0,0,161,155.24Z" transform="translate(-18.87 -59.11)"/><path class="cls-9" d="M26.32,121.52l-1.17,4.31a34.5,34.5,0,0,0-3.77,11.44c-.53,5-.18,10,2.22,14.55,2.43,5.49,6.63,9.14,12,11.61.76.35,1.48.8,2.22,1.2a3.3,3.3,0,0,1-1.17,0,85.51,85.51,0,0,1-9.78-4.36c-4.33-2.54-6.62-6.7-7.43-11.61a33.53,33.53,0,0,1,3.14-21.55A56.4,56.4,0,0,1,26.32,121.52Z" transform="translate(-18.87 -59.11)"/><path class="cls-7" d="M77.65,83.44a16,16,0,0,1-1.74.31q-4.1.29-8.21.51a3,3,0,0,1-.82-.19c3.59-3.76,7.61-6.89,12.62-8.55A19.91,19.91,0,0,1,81.68,75c.63.08,1.27.21,1.9.23,4.07.16,8.14.3,12.21.44l0,.17c-2.89.72-5.93,1.1-8.64,2.26A97.45,97.45,0,0,0,77.65,83.44Z" transform="translate(-18.87 -59.11)"/><path class="cls-10" d="M189.24,100.59a13.09,13.09,0,0,1-2.7-.78c-4.29-2.31-8.12-5.24-10-9.87a7.56,7.56,0,0,1,0-4.88c.76-2.25,3.08-2.93,5.22-1.81,3.72,1.94,5.68,5.19,6.45,9.23,0,.09-.17.22-.26.34-1.51-1.78-2.91-3.66-4.56-5.3-1.44-1.43-2.71-1.51-3.75-.71a3.45,3.45,0,0,0-.55,4.27,21.54,21.54,0,0,0,6.92,7.57C187.07,99.34,188.18,99.94,189.24,100.59Z" transform="translate(-18.87 -59.11)"/><path class="cls-4" d="M168.25,162.82a19.34,19.34,0,0,0,9-1.66c8.13-3.77,9-11.48,4.72-17.8-.3-.46-.6-.92-.9-1.38l2.29-1.17a30.22,30.22,0,0,1,2.11,3c.78,1.45,1.37,3,2,4.51,0,10.54-9.66,15.69-17.41,14.8C169.5,163.1,168.88,162.94,168.25,162.82Z" transform="translate(-18.87 -59.11)"/><path class="cls-10" d="M143.27,74.76c-1.41.24-2.82.51-4.24.73-3.82.6-7.14-.69-10.22-2.8-.17-.11-.19-.44-.28-.66,3,1.5,6,2.62,9.45,1.84a8.06,8.06,0,0,0,4.9-3.17c.8-1.1.65-1.81-.65-2.28a20.62,20.62,0,0,0-2.89-.63c.1-.16.19-.46.3-.46a31.34,31.34,0,0,1,5.44-.16c1.73.21,2.44,1.72,1.79,3.35a31,31,0,0,1-1.82,3.34Z" transform="translate(-18.87 -59.11)"/><path class="cls-3" d="M99.13,158c-2.81-2.43-2.07-5.77-2.25-8.87a18.09,18.09,0,0,1,.14-2.24,43.15,43.15,0,0,0,2.56,4.51c1.95,2.66,4.07,5.19,6.11,7.78l.6,1.49L106,162c-1.72-1.05-3.43-2.12-5.17-3.15C100.3,158.52,99.7,158.29,99.13,158Z" transform="translate(-18.87 -59.11)"/><path class="cls-11" d="M165.79,75.34l-2.18,1.89c-.29-2.11-.5-4.06-.82-6-.46-2.74-1.34-5.24-4.19-6.43l.85-.6a16.31,16.31,0,0,1,6.66,5.45V63.31l.53,0a25.1,25.1,0,0,1-.35,10.35,11.38,11.38,0,0,0-.17,1.39v0Z" transform="translate(-18.87 -59.11)"/><path class="cls-12" d="M106.3,160.68l-.6-1.49-.52-4.53a3.21,3.21,0,0,1,.56.44c1.31,1.61,2.5,3.34,3.93,4.83a37.84,37.84,0,0,0,3.86,3.14h.31l3.9,2.75-7.83-2.11Z" transform="translate(-18.87 -59.11)"/><path class="cls-13" d="M182.92,76.54l-3-.34.35-2.35a38.09,38.09,0,0,0,.58-3.9c.07-1.44-.43-1.86-1.83-1.42a30.57,30.57,0,0,0-4.93,2,38.54,38.54,0,0,0-3.75,2.51l-2.13.74a26.14,26.14,0,0,1,11.43-6.15c1.06-.27,1.63.1,2,1.13A17.17,17.17,0,0,1,182.92,76.54Z" transform="translate(-18.87 -59.11)"/><path class="cls-13" d="M166.63,63.33l-.53,0a11.78,11.78,0,0,0-.59-2c-.15-.31-.73-.71-1-.63-2,.68-4,1.49-5.1,3.52l-.85.6h-.32l-2.1,0-.92-1.24a13.41,13.41,0,0,1,8.87-4,1.74,1.74,0,0,1,2.12,1.57C166.39,61.87,166.51,62.6,166.63,63.33Z" transform="translate(-18.87 -59.11)"/><path class="cls-3" d="M187.54,148.37c-.67-1.51-1.27-3.06-2-4.51a30.22,30.22,0,0,0-2.11-3l3.64-1.7Z" transform="translate(-18.87 -59.11)"/><path class="cls-10" d="M145.36,61.52l2,3.44c-2.42-1-4.52-1.79-6.61-2.65-.2-.08-.33-.35-.5-.52Z" transform="translate(-18.87 -59.11)"/><path class="cls-10" d="M189.82,93.37c-.16-.09-.46-.17-.47-.28a11.89,11.89,0,0,0-3.44-7.5l.25-.29L189,86.74A9.32,9.32,0,0,1,189.82,93.37Z" transform="translate(-18.87 -59.11)"/><path class="cls-14" d="M95.8,75.72c-4.07-.15-8.14-.28-12.21-.44-.64,0-1.27-.15-1.9-.23,3.58-1,7.18-.58,10.78-.17,1.13.13,2.25.39,3.37.59A.38.38,0,0,1,95.8,75.72Z" transform="translate(-18.87 -59.11)"/><path class="cls-10" d="M187.09,80.45l-7.25-1.2-.06-.35,6.17-.55Z" transform="translate(-18.87 -59.11)"/><path class="cls-10" d="M187.14,83.45l-2.77-1.77c2.25-.58,4.88.56,5.43,2.18Z" transform="translate(-18.87 -59.11)"/><path class="cls-4" d="M106.3,160.68l3.6,3L106,162Z" transform="translate(-18.87 -59.11)"/><path class="cls-1" d="M134.26,69l-.1.2-.14-.12.21-.1Z" transform="translate(-18.87 -59.11)"/><path class="cls-15" d="M118.32,131.23c-1.45-1.1-3-2.1-4.35-3.33a47.83,47.83,0,0,1-14.92-25.74,43.28,43.28,0,0,1-1.15-12.76c.62-7.25,2.43-14.06,8-19.28l2.47-2.29c4.88-.88,9.36-.34,12.9,3.59-.63-.27-1.27-.5-1.88-.81-4.23-2.19-8.11-2.05-10.74,3-1,1.87-.81,2.57,1,3.55,1,.51,1.92,1.12,2.87,1.68l-.91.34-4,5.44a14.66,14.66,0,0,0-3.24,7.49L103.9,94c-.05.39-.12.78-.15,1.17-.22,2.83-.49,5.67.44,8.44l.33,1.52c.52,1.75.93,3.54,1.58,5.24a33.66,33.66,0,0,0,2,3.76l.88,1.21c1.07,3,3.3,5,5.43,7.2l1.19.92,6.63,5.42,1.2.88,9.93,5.44,1.5.86c1.08.35,2.15.75,3.25,1,2.62.69,5.25,1.33,7.88,2l1.49.29c3.69.34,7.37,1,11.09.29h1.84c.68-.1,1.37-.14,2-.3,2.43-.58,4.85-1.19,7.28-1.79l1.8-.61c2-1.07,4.11-2.11,6.14-3.22.34-.19.53-.64.8-1H179l.3-.28.31-.32h0l.31-.3h0l.3-.3h0a18.49,18.49,0,0,0,5.31-7,8.53,8.53,0,0,0,.42-2.34,13.31,13.31,0,0,0,1.43-2.42c.53-1.55.84-3.16,1.25-4.75l2.6,2,.07-1.15c2.22.54,2.76.29,3.77-1.79a9.85,9.85,0,0,0,.43-1,3.73,3.73,0,0,0-3.53-5.1c-.94,0-1.88-.18-2.82-.25a23.66,23.66,0,0,0-4.61-.27c-4.68.59-9.31,1.58-14,2a56.55,56.55,0,0,1-9.81-.16,60.93,60.93,0,0,1-6.87-1.32l-.48-2.64c4.81,1.93,9.69,3.61,15,3.4a40.48,40.48,0,0,0,5.32-.84c3.69-.65,7.37-1.73,11.08-1.91,6.45-.31,12.11,1.68,15.91,7.38-.37,1.73-.69,3.47-1.12,5.18a22.41,22.41,0,0,1-4.86,9c-7.56,8.93-17.5,13.74-28.71,16.05a49.35,49.35,0,0,1-11.88.92,52.28,52.28,0,0,1-17.6-3.69c-.74-.3-1.52-.49-2.28-.74l.31-.29c4.57.95,9.11,2.12,13.72,2.76,3.07.42,6.24.08,9.37.08-3.37-.64-6.74-.89-10.06-1.47a95.66,95.66,0,0,1-10-2.29c-6.61-1.9-12.87-4.59-18.26-9-1.22-1-2.45-2-3.68-3a.4.4,0,0,0,0-.11s-.05,0-.08,0l.12.13c.27.51.5,1,.82,1.51C117,129.46,117.69,130.34,118.32,131.23Z" transform="translate(-18.87 -59.11)"/><path class="cls-16" d="M112.61,78.9c-1-.56-1.89-1.16-2.87-1.68-1.86-1-2-1.67-1-3.55,2.63-5.1,6.51-5.24,10.74-3,.6.31,1.25.54,1.88.81a47.28,47.28,0,0,1,3.53,5.31c1.5,3,2.78,6.2,4,9.37a20.32,20.32,0,0,0,8.65,10.57,6.33,6.33,0,0,1,.69.56c-2.91.35-4.22,1.33-4.5,3.35a9,9,0,0,0-.11,2.64c.54,2.11,1.3,4.16,2,6.23l-1.24.14a6.08,6.08,0,0,0-.83-1.51c-1.63-1.62-3.3-3.2-5-4.72a5.83,5.83,0,0,0-1.7-.71,15,15,0,0,0-1.09-1.21c-.7-.63-1.72-1.07-2.11-1.84A63,63,0,0,1,120.73,93c-1.19-3.2-.92-6.57-.92-9.9l-.59-.6h0a9.47,9.47,0,0,0-.95-1.63A6.32,6.32,0,0,0,112.61,78.9Z" transform="translate(-18.87 -59.11)"/><path class="cls-12" d="M77.65,83.44a97.45,97.45,0,0,1,9.49-5.29c2.7-1.16,5.75-1.53,8.64-2.26-.17,1.45-.39,2.89-.49,4.35,0,.37.31.77.48,1.15L95.25,84c-2,.68-4,1.23-5.91,2.06A46.85,46.85,0,0,0,77.07,94.3c.41-4.44,3-7.57,6.78-10.43Z" transform="translate(-18.87 -59.11)"/><path class="cls-17" d="M133.66,100.6c.28-2,1.59-3,4.5-3.35L140,97l3.76.53c4,1.27,7.29,3.46,9.19,7.36a3.4,3.4,0,0,0,.46.58l.48,2.64-1,3.35-5.9-1-1-.44-6.49-3.47c-.33-1.06-.23-2.58-2.12-2Zm6.85-1.29a11,11,0,0,0-1.89.37c-.68.26-1.85.71-1.84,1a3.25,3.25,0,0,0,1,2.28,51.08,51.08,0,0,0,7,4.58,20.87,20.87,0,0,0,5.81,1.68c1.27.23,1.73-.55,1.18-1.77a13.27,13.27,0,0,0-1.62-2.68C147.7,101.68,144.82,99.26,140.51,99.3Z" transform="translate(-18.87 -59.11)"/><path class="cls-18" d="M159,105.95c-3-.09-5.42-2.33-7.11-5.58-1.53-3-.71-5.59,1.23-8.06,3.67-4.68,9.32-5.79,13.95-2.69a8.34,8.34,0,0,1,.05,14A15.39,15.39,0,0,1,159,105.95Zm-5.05-5.42a.11.11,0,0,1,.15-.07c0,.27-.12.64,0,.8a6.8,6.8,0,0,0,4.83,2.67,11.22,11.22,0,0,0,6.44-1.58A6.91,6.91,0,0,0,169,96.06a7.08,7.08,0,0,0-5-6.57l-4.17-.59L155.58,91h0a7,7,0,0,0-3.5,5.63c-.08,1.06-.1,2.66,1.52,3.17l-.11.05Z" transform="translate(-18.87 -59.11)"/><path class="cls-18" d="M143.77,97.52,140,97c-5-2.94-6.7-7.66-4.42-12.29,1.65-3.35,4.67-4.46,8.1-4.84.4,0,.8,0,1.2,0,6.63-.51,9.29,6.85,6.58,11.4A13.1,13.1,0,0,1,143.77,97.52ZM146.2,94a8,8,0,0,0,4.18-5.54A6,6,0,0,0,148,81.79c-1.84-1.27-3.93-1.2-6-.73-5.5,1.21-8,7.12-4.64,11.52,1.75,2.26,4.08,3.32,6.26,2.63Z" transform="translate(-18.87 -59.11)"/><path class="cls-19" d="M143.27,74.76l1.79-.91a38.64,38.64,0,0,1,6.46-.87c4.36.13,6.53,4.81,4.4,8.55-.77-1.08-1.49-2.2-2.33-3.21a3.87,3.87,0,0,0-3.44-1.48c-2.31.21-4.67-.69-6.95.3l-4.32,1.9C140.07,77,141.79,76,143.27,74.76Z" transform="translate(-18.87 -59.11)"/><path class="cls-19" d="M173.27,95.53c-.39-3.41-1.17-6.47-3.53-8.76s-5.55-2.7-8.84-2.18c2.75-3,7.91-3.7,10.92-1.54C175.67,85.81,175.5,91,173.27,95.53Z" transform="translate(-18.87 -59.11)"/><path class="cls-17" d="M170.3,73.08a38.54,38.54,0,0,1,3.75-2.51,30.57,30.57,0,0,1,4.93-2c1.39-.44,1.9,0,1.83,1.42a38.06,38.06,0,0,1-.58,3.9l-2.39-.32C175.38,72.44,172.83,72.93,170.3,73.08Z" transform="translate(-18.87 -59.11)"/><path class="cls-11" d="M177.84,73.52l2.39.32-.35,2.35L168.5,77.44h0c1.36-2.11,3.69-2.35,5.8-3C175.47,74.1,176.66,73.83,177.84,73.52Z" transform="translate(-18.87 -59.11)"/><path class="cls-10" d="M156.19,64.8l2.1,0c.09,1.74.19,3.48.27,5.23,0,.11-.14.22-.28.44Z" transform="translate(-18.87 -59.11)"/><path class="cls-20" d="M165.79,75.34l.33-.3Z" transform="translate(-18.87 -59.11)"/><path class="cls-19" d="M138.46,79.25l.14-.13s0,.07,0,.08a.45.45,0,0,1-.12,0Z" transform="translate(-18.87 -59.11)"/><path class="cls-19" d="M138.44,79.24l0,.12.07-.11Z" transform="translate(-18.87 -59.11)"/><path class="cls-11" d="M168.5,77.44l-.06.13.07-.12Z" transform="translate(-18.87 -59.11)"/><path class="cls-14" d="M94.87,94,97,105.1c-.92.76-1.86,1.49-2.74,2.28a55.74,55.74,0,0,0-9.62,11.53l-3.76-2.39-2.23-8.06c.13-.15.27-.29.38-.45A43.1,43.1,0,0,1,94.87,94Z" transform="translate(-18.87 -59.11)"/><path class="cls-8" d="M94.87,94A43.1,43.1,0,0,0,79,108c-.11.16-.25.3-.38.45-1.28-4-2.85-8-2-12.31.12-.63.33-1.24.5-1.86A46.85,46.85,0,0,1,89.33,86.1c1.91-.83,3.94-1.38,5.91-2.06Z" transform="translate(-18.87 -59.11)"/><path class="cls-7" d="M90.64,131.53l-.26,0L82,127.34q0-1.81,0-3.61l2.61-4.53,10,5.44a8.37,8.37,0,0,1-.36.79Q92.44,128.49,90.64,131.53Z" transform="translate(-18.87 -59.11)"/><path class="cls-12" d="M84.62,119.2,82,123.73l-1.17-7.21,3.76,2.39A1.75,1.75,0,0,1,84.62,119.2Z" transform="translate(-18.87 -59.11)"/><path class="cls-21" d="M23.6,151.82c-2.4-4.6-2.75-9.52-2.22-14.55a34.5,34.5,0,0,1,3.77-11.44,3.28,3.28,0,0,1,.28,1.07,20.29,20.29,0,0,0,4.77,15.38,3.76,3.76,0,0,1,.35.66,20.61,20.61,0,0,0-.84,2.54C29,148.92,26.63,150.67,23.6,151.82Z" transform="translate(-18.87 -59.11)"/><path class="cls-8" d="M108.17,125.22a2.45,2.45,0,0,1,.66.3q4.39,4,8.75,8c.1.09.12.27.18.4a18.93,18.93,0,0,0-8.28,5.92c-3.18,3.9-4.17,8.5-4.39,13.37a10.54,10.54,0,0,1-1.45-1.77,48.15,48.15,0,0,1-4.26-12.08c-.07-.32-.37-.59-.57-.88l.28-1.2c.43-.9.85-1.8,1.28-2.7A28.78,28.78,0,0,1,108.17,125.22Z" transform="translate(-18.87 -59.11)"/><path class="cls-21" d="M105.08,153.19c.22-4.87,1.21-9.47,4.39-13.37a18.93,18.93,0,0,1,8.28-5.92l6.37,3.91c.55.34,1.13.64,1.69,1a2.91,2.91,0,0,1-.55.6c-2.33,1.42-4.67,2.81-7,4.22l-.26.29v0c-5,3.42-7.72,9.83-6.28,15a33.2,33.2,0,0,0,1.79,4.2,37.83,37.83,0,0,1-3.86-3.14c-1.43-1.49-2.62-3.22-3.93-4.83a3.2,3.2,0,0,0-.56-.44Z" transform="translate(-18.87 -59.11)"/><path class="cls-8" d="M84.62,119.2a1.75,1.75,0,0,0,0-.28,55.73,55.73,0,0,1,9.62-11.53c.88-.8,1.83-1.52,2.74-2.28q2.49,5.46,5,10.93a3.21,3.21,0,0,1,.14.72l-7.24,7.85-.26,0Z" transform="translate(-18.87 -59.11)"/><path class="cls-8" d="M139.38,157.62l-1.85,1c-5.5-.84-9.85-5.2-11.08-11.19a14,14,0,0,1,.27-8l6.61,3.15c0,.9-.05,1.81,0,2.7.43,5.13,3.75,8.34,8.37,8.12l0,1.21Z" transform="translate(-18.87 -59.11)"/><path class="cls-3" d="M139.38,157.62l2.38-2.94a3,3,0,0,0,2.43-2.48h.58l.31.31-.61,2.43a2.71,2.71,0,0,0,2.71-2.27.75.75,0,0,1,.26-.11l1.14.06a2.69,2.69,0,0,1,.08.28l-.75,1.75c1.35-.14,2.28-.39,2.7-1.53,2.54-1.54,3.51-3.71,2.67-6.61l4.78.05c.17,2,.55,3.92,2.69,4.85l.24,1.5q0,1.17,0,2.34A46.54,46.54,0,0,1,139.38,157.62Z" transform="translate(-18.87 -59.11)"/><path class="cls-21" d="M94.83,124.59l7.24-7.85q2.12,2.92,4.25,5.84c.63.87,1.23,1.76,1.85,2.63a28.79,28.79,0,0,0-7.8,9.34c-.43.9-.86,1.8-1.28,2.7a61.38,61.38,0,0,1-.82-7.9c0-2.16-.34-3.61-2.57-4.19A3.08,3.08,0,0,1,94.83,124.59Z" transform="translate(-18.87 -59.11)"/><path class="cls-12" d="M161,152.9l-.24-1.5,3.08.28,3,.78.22-.52-1-1.39,2-.71a2.65,2.65,0,0,0,3.09-.74l-1.85-1.37,2.26-1.15a6,6,0,0,0,1.67-.4c.7-.4,1-1,0-1.46l4.14-1.23a14.49,14.49,0,0,1-8.37,11.41,6.12,6.12,0,0,1-6.14-.62C162.26,153.85,161.63,153.36,161,152.9Z" transform="translate(-18.87 -59.11)"/><path class="cls-22" d="M115.61,127c1.23,1,2.46,2,3.68,3,5.39,4.42,11.65,7.11,18.26,9a95.66,95.66,0,0,0,10,2.29c3.32.58,6.7.83,10.06,1.47-3.13,0-6.3.34-9.37-.08-4.61-.64-9.15-1.81-13.72-2.76l-5.13-2.1h0l-.61-.34-.58-.27h-.31l-.61-.31h0l-.31-.31h0l-.61-.31h0l-.61-.31h0l-.3-.3h-.28l-.63-.31h0l-.6-.59h-.27l-.64-.31h0l-.31-.31h0l-.61-.31h0l-.61-.31h0l-.31-.31h0L121,133h0l-2.41-1.51h0l-.31-.31h0c-.64-.89-1.29-1.77-1.9-2.68-.32-.47-.55-1-.82-1.51Z" transform="translate(-18.87 -59.11)"/><path class="cls-6" d="M141.73,153.48c-4.62.22-7.94-3-8.37-8.12-.07-.89,0-1.8,0-2.7l1.77.62A15,15,0,0,0,136,146a37.16,37.16,0,0,0,2.69,4.19,3.42,3.42,0,0,0,3.05,1.79.78.78,0,0,1,0,.27Z" transform="translate(-18.87 -59.11)"/><path class="cls-2" d="M141.75,152.28a.78.78,0,0,0,0-.27c-1.73-2.35-2.16-5.24-3.29-7.84l4.19,1.18a4.38,4.38,0,0,0,3.07,3.05c-.16,1.67-1.31,2.67-2.49,3.65Z" transform="translate(-18.87 -59.11)"/><path class="cls-23" d="M138.46,144.17c1.13,2.6,1.56,5.49,3.29,7.84a3.42,3.42,0,0,1-3.05-1.79A37.16,37.16,0,0,1,136,146a15,15,0,0,1-.89-2.76Z" transform="translate(-18.87 -59.11)"/><path class="cls-16" d="M145.72,148.4a4.38,4.38,0,0,1-3.07-3.05c2.09.22,4.19.39,6.26.69.47.07.87.55,1.3.85l-.08,2.38-3.53-.3-.06-2.54-.43,0Z" transform="translate(-18.87 -59.11)"/><path class="cls-2" d="M148.67,152.89a2.7,2.7,0,0,0-.08-.28c2.29-1.71,2.94-3.69,1.88-5.74.79-1.21,1.84-.49,2.81-.37.84,2.9-.14,5.07-2.67,6.61Z" transform="translate(-18.87 -59.11)"/><path class="cls-23" d="M163.83,151.67l-3.08-.28c-2.14-.92-2.52-2.83-2.69-4.85l1.13,0q.92,2.84,3,2.1l2.56,1.89Z" transform="translate(-18.87 -59.11)"/><path class="cls-23" d="M168.13,149.84l-2,.71-.61-.1-2.11-1.77,3-1.21,2.42,1Z" transform="translate(-18.87 -59.11)"/><path class="cls-2" d="M166.41,147.47l-3,1.21-1.23-2.41C163.64,146.46,165.41,145.59,166.41,147.47Z" transform="translate(-18.87 -59.11)"/><path class="cls-22" d="M150.47,146.87c1.06,2,.4,4-1.88,5.74l-1.14-.06,2.69-3.28.08-2.38Z" transform="translate(-18.87 -59.11)"/><path class="cls-2" d="M162.21,148.66q-2.1.74-3-2.1h2.4Z" transform="translate(-18.87 -59.11)"/><path class="cls-19" d="M168.13,149.84l.7-1.41.54-.71,1.85,1.37A2.65,2.65,0,0,1,168.13,149.84Z" transform="translate(-18.87 -59.11)"/><path class="cls-22" d="M162.21,148.66l-.62-2.1.57-.3,1.23,2.41,2.11,1.77-.73.11Z" transform="translate(-18.87 -59.11)"/><path class="cls-19" d="M173.29,144.72c1.06.48.71,1.06,0,1.46a6,6,0,0,1-1.67.4C172.07,145.85,171.93,144.61,173.29,144.72Z" transform="translate(-18.87 -59.11)"/><path class="cls-2" d="M129.43,137.84l5.13,2.1-.31.29Z" transform="translate(-18.87 -59.11)"/><path class="cls-2" d="M118.61,131.53,121,133Z" transform="translate(-18.87 -59.11)"/><path class="cls-2" d="M124,134.85l.6.59Z" transform="translate(-18.87 -59.11)"/><path class="cls-2" d="M121.62,133.63l.61.31Z" transform="translate(-18.87 -59.11)"/><path class="cls-2" d="M122.22,133.93l.61.31Z" transform="translate(-18.87 -59.11)"/><path class="cls-2" d="M123.12,134.54l.64.31Z" transform="translate(-18.87 -59.11)"/><path class="cls-2" d="M124.62,135.44l.63.31Z" transform="translate(-18.87 -59.11)"/><path class="cls-2" d="M125.82,136l.61.31Z" transform="translate(-18.87 -59.11)"/><path class="cls-2" d="M126.42,136.34l.61.31Z" transform="translate(-18.87 -59.11)"/><path class="cls-2" d="M127.33,136.94l.61.31Z" transform="translate(-18.87 -59.11)"/><path class="cls-2" d="M128.83,137.52l.61.34Z" transform="translate(-18.87 -59.11)"/><path class="cls-15" d="M118.31,131.23l.31.31Z" transform="translate(-18.87 -59.11)"/><path class="cls-2" d="M121,133l.31.31Z" transform="translate(-18.87 -59.11)"/><path class="cls-2" d="M121.32,133.33l.31.31Z" transform="translate(-18.87 -59.11)"/><path class="cls-2" d="M122.82,134.24l.31.31Z" transform="translate(-18.87 -59.11)"/><path class="cls-2" d="M125.53,135.75l.3.3Z" transform="translate(-18.87 -59.11)"/><path class="cls-2" d="M127,136.64l.31.31Z" transform="translate(-18.87 -59.11)"/><path class="cls-2" d="M127.93,137.24h0Z" transform="translate(-18.87 -59.11)"/><path class="cls-8" d="M118,143.87l.26-.29Z" transform="translate(-18.87 -59.11)"/><path class="cls-12" d="M94.83,124.59a3.08,3.08,0,0,0,.85.58c2.24.58,2.61,2,2.57,4.19a61.38,61.38,0,0,0,.82,7.9l-.28,1.2L97,146.28c-.8-2.18-1.73-4.31-2.36-6.54s-.82-4.27-1.3-6.4a2,2,0,0,0-.9-1,12.5,12.5,0,0,0-1.77-.77q1.78-3,3.57-6.1a8.37,8.37,0,0,0,.36-.79Z" transform="translate(-18.87 -59.11)"/><path class="cls-7" d="M97,146.28l1.82-7.82c.2.29.5.56.57.88a48.15,48.15,0,0,0,4.26,12.08,10.54,10.54,0,0,0,1.45,1.77l.1,1.48.52,4.53c-2-2.59-4.17-5.12-6.11-7.78A43.15,43.15,0,0,1,97,146.91Z" transform="translate(-18.87 -59.11)"/><path class="cls-21" d="M113.83,163.07h0Z" transform="translate(-18.87 -59.11)"/><path class="cls-17" d="M159.45,64.21c1.11-2,3.08-2.83,5.1-3.52.23-.08.81.32,1,.63a11.78,11.78,0,0,1,.59,2q0,3.18,0,6.35A16.31,16.31,0,0,0,159.45,64.21Z" transform="translate(-18.87 -59.11)"/><path class="cls-16" d="M152.92,111.45l1-3.35a61,61,0,0,0,6.87,1.32,56.55,56.55,0,0,0,9.81.16c4.69-.44,9.32-1.43,14-2a23.66,23.66,0,0,1,4.61.27c.94.07,1.88.22,2.82.25a3.73,3.73,0,0,1,3.53,5.1,9.85,9.85,0,0,1-.43,1c-1,2.07-1.55,2.32-3.77,1.79a9.24,9.24,0,0,0-10.46-4.49l.56.29c-.23.21-.43.53-.7.63-2.62.94-5.21,2-7.88,2.73a43.48,43.48,0,0,1-19.69,1.45,11.65,11.65,0,0,0-2.09,0l-6.32-1.76,0-.54c.84-.05,1.7,0,2.53-.17C149.42,113.74,151.57,113.45,152.92,111.45Z" transform="translate(-18.87 -59.11)"/><path class="cls-24" d="M133.35,135.18l-9.93-5.44,5.11-9,4.44,2.46,1.26.69,4.23,2.24a7.35,7.35,0,0,1-.35.8Q135.74,131.06,133.35,135.18Z" transform="translate(-18.87 -59.11)"/><path class="cls-24" d="M146,139.06c-2.63-.66-5.26-1.29-7.88-2-1.1-.29-2.17-.69-3.25-1a11,11,0,0,1,.51-1.22c1.52-2.7,3.06-5.38,4.59-8.07l10.19,2.73c-.93,2.17-1.86,4.35-2.79,6.52C146.91,137,146.43,138,146,139.06Z" transform="translate(-18.87 -59.11)"/><path class="cls-24" d="M158.56,139.64c-3.72.74-7.4,0-11.09-.29l4.51-9.6a9.64,9.64,0,0,0,1.73.27c2.72-.06,5.45-.17,8.17-.27Z" transform="translate(-18.87 -59.11)"/><path class="cls-24" d="M122.22,128.86l-6.63-5.42,5.43-9.07c.63.54,1.28,1.05,1.9,1.61,1.5,1.37,3,2.76,4.46,4.14a6,6,0,0,0-.54.69Q124.52,124.83,122.22,128.86Z" transform="translate(-18.87 -59.11)"/><path class="cls-24" d="M114.4,122.51c-2.13-2.16-4.36-4.24-5.43-7.2,1.82-2.33,3.62-4.67,5.48-7a8.25,8.25,0,0,1,1.44-1.15c.34.55.65,1.13,1,1.66,1.07,1.55,2.16,3.09,3.24,4.64-.16.12-.37.2-.47.35Q117,118.18,114.4,122.51Z" transform="translate(-18.87 -59.11)"/><path class="cls-24" d="M169.71,137.55c-2.43.6-4.85,1.21-7.28,1.79-.66.16-1.36.2-2,.3.22-.65.47-1.28.66-1.94.8-2.73,1.59-5.47,2.38-8.21,1.64-.39,3.28-.73,4.9-1.18,1.28-.36,2.52-.84,3.77-1.27Z" transform="translate(-18.87 -59.11)"/><path class="cls-24" d="M108.09,114.11a33.66,33.66,0,0,1-2-3.76c-.65-1.7-1.07-3.49-1.58-5.24a6.23,6.23,0,0,0,.68-.51l6.54-6.46,3,7.55Z" transform="translate(-18.87 -59.11)"/><path class="cls-24" d="M178.45,132.75c-.26.33-.46.78-.8,1-2,1.11-4.09,2.15-6.14,3.22a14.12,14.12,0,0,0,.46-1.56c.54-3,1.05-6,1.58-9l5.46-3.89Z" transform="translate(-18.87 -59.11)"/><path class="cls-24" d="M104.18,103.59c-.93-2.77-.66-5.61-.44-8.44,0-.39.1-.78.15-1.17.31-.15.6-.33.92-.45l5.92-2.24.6,5.34Z" transform="translate(-18.87 -59.11)"/><path class="cls-25" d="M186,122.21a8.53,8.53,0,0,1-.42,2.34,18.49,18.49,0,0,1-5.31,7l.29-10.83,3.91-5.12Z" transform="translate(-18.87 -59.11)"/><path class="cls-25" d="M104.48,92.17a14.65,14.65,0,0,1,3.24-7.49l3.94-.27-.9,5Z" transform="translate(-18.87 -59.11)"/><path class="cls-26" d="M186,122.21l-1.53-6.61.91-2.4,3.31,1.83c-.4,1.59-.72,3.2-1.25,4.75A13.31,13.31,0,0,1,186,122.21Z" transform="translate(-18.87 -59.11)"/><path class="cls-27" d="M140,126.74c-1.53,2.69-3.07,5.38-4.59,8.07a11,11,0,0,0-.51,1.22l-1.5-.86q2.38-4.12,4.76-8.25a7.34,7.34,0,0,0,.35-.8Z" transform="translate(-18.87 -59.11)"/><path class="cls-26" d="M111.67,84.4l-3.94.27,4-5.44,2.12.9Z" transform="translate(-18.87 -59.11)"/><path class="cls-27" d="M152,129.75l-4.51,9.6-1.49-.29c.46-1,.93-2,1.38-3.07.94-2.17,1.86-4.34,2.79-6.52Z" transform="translate(-18.87 -59.11)"/><path class="cls-27" d="M108.09,114.11l6.67-8.41,1.14,1.51a8.25,8.25,0,0,0-1.44,1.15c-1.86,2.3-3.66,4.64-5.48,7Z" transform="translate(-18.87 -59.11)"/><path class="cls-27" d="M173.55,126.39c-.52,3-1,6-1.58,9a14.12,14.12,0,0,1-.46,1.56l-1.8.61L172.11,127Z" transform="translate(-18.87 -59.11)"/><path class="cls-27" d="M114.4,122.51q2.64-4.33,5.28-8.66c.1-.15.31-.24.47-.35l.87.86-5.43,9.07Z" transform="translate(-18.87 -59.11)"/><path class="cls-27" d="M180.52,120.71l-.29,10.83h0l-.3.3h0l-.31.3h0l-.31.32-.3.28h-.58l.57-10.26Z" transform="translate(-18.87 -59.11)"/><path class="cls-27" d="M163.43,129.5c-.79,2.74-1.58,5.48-2.38,8.21-.19.65-.44,1.29-.66,1.94h-1.84l3.32-9.89Z" transform="translate(-18.87 -59.11)"/><path class="cls-27" d="M122.22,128.86q2.3-4,4.61-8.05a6.05,6.05,0,0,1,.54-.69l1.15.61-5.11,9Z" transform="translate(-18.87 -59.11)"/><path class="cls-22" d="M188.64,115l-3.31-1.83-1.5-.6-2.42-.87-.56-.29a9.24,9.24,0,0,1,10.46,4.49l-.07,1.15Z" transform="translate(-18.87 -59.11)"/><path class="cls-27" d="M104.18,103.59l7.16-7,.39,1.5-6.54,6.46a6.23,6.23,0,0,1-.68.51Z" transform="translate(-18.87 -59.11)"/><path class="cls-27" d="M104.48,92.17l6.28-2.72q0,.93,0,1.85l-5.92,2.24c-.32.12-.62.3-.92.45Z" transform="translate(-18.87 -59.11)"/><path class="cls-22" d="M113.82,80.13l-2.12-.9.91-.34a6.32,6.32,0,0,1,5.66,2,9.47,9.47,0,0,1,.95,1.63,12.77,12.77,0,0,1-1.33-.51c-1-.49-1.9-1-2.85-1.53Z" transform="translate(-18.87 -59.11)"/><path class="cls-22" d="M115.6,127l-.12-.13s.07,0,.08,0a.4.4,0,0,1,0,.11Z" transform="translate(-18.87 -59.11)"/><path class="cls-25" d="M179.92,131.85l.3-.3Z" transform="translate(-18.87 -59.11)"/><path class="cls-25" d="M179.62,132.15l.31-.3Z" transform="translate(-18.87 -59.11)"/><path class="cls-25" d="M179.32,132.46l.31-.32Z" transform="translate(-18.87 -59.11)"/><path class="cls-24" d="M178.71,132.74h0Z" transform="translate(-18.87 -59.11)"/><path class="cls-15" d="M115,80.51c.95.51,1.89,1,2.85,1.53a12.77,12.77,0,0,0,1.33.51h0l.59.6c0,3.33-.27,6.7.92,9.9a63,63,0,0,0,2.79,6.58c.39.77,1.41,1.21,2.11,1.84a15,15,0,0,1,1.09,1.21c2.05,2.21,4.08,4.44,6.18,6.61.28.29.91.23,1.38.33l1.23-.14,2.17,2.77c-.94,1.8-1.89,3.59-2.8,5.41-.46.92-.83,1.89-1.24,2.84l-1.35-.89a78.17,78.17,0,0,1-7.14-4.87A35.72,35.72,0,0,1,113.41,96.2c-1-3.77-1.81-7.6-.49-11.45A34.08,34.08,0,0,1,115,80.51Zm6.83,25.65,10.95,5.76.31-.6C130,108.33,125.94,107.26,121.88,106.16Zm2.15,5.16c2.66.29,4.7,2.35,7.64,2.81C130.66,112.3,127.11,111.06,124,111.32Z" transform="translate(-18.87 -59.11)"/><path class="cls-11" d="M137.68,112.24l-2.17-2.77c-.67-2.07-1.43-4.12-2-6.23a9,9,0,0,1,.11-2.64l3.7,4c-.14,1.47-.34,2.94-.37,4.41,0,.36.55,1.06.81,1a1.62,1.62,0,0,0,1.2-.83,14.87,14.87,0,0,0,.49-2.63L146,110c-.9,0-1.8,0-2.69.1a2.36,2.36,0,0,0-2.39,1.9A23.08,23.08,0,0,0,145,112c.73-.14,1.32-1,2-1.49l5.9,1c-1.35,2-3.5,2.29-5.62,2.62-.83.13-1.69.12-2.53.17l-6.31-1.39Z" transform="translate(-18.87 -59.11)"/><path class="cls-28" d="M134.28,109.61c-.47-.1-1.11,0-1.38-.33-2.1-2.16-4.13-4.4-6.18-6.61a5.83,5.83,0,0,1,1.7.71c1.72,1.52,3.39,3.1,5,4.72A6.08,6.08,0,0,1,134.28,109.61Z" transform="translate(-18.87 -59.11)"/><path class="cls-22" d="M119.81,83.14l-.59-.6Z" transform="translate(-18.87 -59.11)"/><path class="cls-14" d="M140.51,99.3c4.31,0,7.19,2.38,9.64,5.5a13.27,13.27,0,0,1,1.62,2.68c.55,1.21.1,2-1.18,1.77a20.87,20.87,0,0,1-5.81-1.68,51.08,51.08,0,0,1-7-4.58,3.25,3.25,0,0,1-1-2.28c0-.33,1.16-.78,1.84-1A11,11,0,0,1,140.51,99.3Z" transform="translate(-18.87 -59.11)"/><path class="cls-19" d="M139.48,106.58a14.87,14.87,0,0,1-.49,2.63,1.62,1.62,0,0,1-1.2.83c-.26,0-.82-.68-.81-1,0-1.47.23-2.94.37-4.41C139.25,104,139.14,105.52,139.48,106.58Z" transform="translate(-18.87 -59.11)"/><path class="cls-19" d="M147,110.49c-.65.52-1.25,1.35-2,1.49a23.08,23.08,0,0,1-4.15.07,2.36,2.36,0,0,1,2.39-1.9c.89-.07,1.79-.07,2.69-.1Z" transform="translate(-18.87 -59.11)"/><path class="cls-29" d="M164,89.49a7.08,7.08,0,0,1,5,6.57,6.91,6.91,0,0,1-3.66,6.28,11.22,11.22,0,0,1-6.44,1.58,6.8,6.8,0,0,1-4.83-2.67c-.13-.15,0-.52,0-.79a2.19,2.19,0,0,0,3,.19c1.11-.89.95-2,.38-3.08,1.48.24,3,1.15,4.45.15a29.91,29.91,0,0,0,3.86-3c1.1-1,.93-2.42-.15-3.54C165,90.63,164.51,90.06,164,89.49Z" transform="translate(-18.87 -59.11)"/><path class="cls-30" d="M164,89.49c.53.57,1.06,1.14,1.6,1.7,1.08,1.12,1.25,2.49.15,3.54a29.91,29.91,0,0,1-3.86,3c-1.47,1-3,.1-4.45-.15l-.62-.54c-1-1.9-2.59-3.69-1.21-6.06h0l4.23-2.07Z" transform="translate(-18.87 -59.11)"/><path class="cls-29" d="M155.58,91c-1.38,2.38.18,4.17,1.21,6.06-2.48-.3-3.31.41-3.18,2.73-1.62-.51-1.61-2.11-1.52-3.17A7,7,0,0,1,155.58,91Z" transform="translate(-18.87 -59.11)"/><path class="cls-19" d="M153.6,99.76c-.13-2.32.7-3,3.18-2.73l.62.54c.57,1.11.73,2.19-.38,3.08a2.19,2.19,0,0,1-3-.19.11.11,0,0,0-.15.07l-.41-.72Z" transform="translate(-18.87 -59.11)"/><path class="cls-29" d="M159.81,88.9,155.58,91Z" transform="translate(-18.87 -59.11)"/><path class="cls-29" d="M153.49,99.81l.41.72Z" transform="translate(-18.87 -59.11)"/><path class="cls-29" d="M143.55,95.21c-2.18.69-4.52-.37-6.26-2.63-3.4-4.4-.86-10.31,4.64-11.52,2.11-.46,4.2-.54,6,.73a6,6,0,0,1,2.41,6.63A8,8,0,0,1,146.2,94c.2-1.84-.3-2.83-1.58-3a2,2,0,0,0-2.43,1.26C141.67,93.6,142.36,94.54,143.55,95.21Zm-1-5.67a10.31,10.31,0,0,0,1.91-.28,4,4,0,0,0,2.71-3.59c.18-1.73-.91-2.69-2.76-3.67a3.55,3.55,0,0,0-4.26.76c-1.32,1.27-2.47,2.83-1.87,4.61S140.77,89.52,142.58,89.54Z" transform="translate(-18.87 -59.11)"/><path class="cls-19" d="M143.55,95.21c-1.2-.67-1.88-1.62-1.36-3a2,2,0,0,1,2.43-1.26c1.28.2,1.78,1.19,1.58,3Z" transform="translate(-18.87 -59.11)"/><path class="cls-19" d="M141.75,152.28l1.47-.22,1,.14a3,3,0,0,1-2.43,2.49l0-1.21Z" transform="translate(-18.87 -59.11)"/><path class="cls-2" d="M150.14,149.26l-2.69,3.28a.75.75,0,0,0-.27.11l-2.1-.16-.31-.31,1.84-3.23Z" transform="translate(-18.87 -59.11)"/><path class="cls-22" d="M146.61,149l-1.84,3.23h-.58l-1-.14c1.18-1,2.33-2,2.49-3.65l.41-1.94.43,0Z" transform="translate(-18.87 -59.11)"/><path class="cls-19" d="M145.08,152.5l2.1.16a2.71,2.71,0,0,1-2.71,2.27Z" transform="translate(-18.87 -59.11)"/><path class="cls-19" d="M148.67,152.89l1.94.22c-.42,1.14-1.34,1.39-2.7,1.53Z" transform="translate(-18.87 -59.11)"/><path class="cls-19" d="M164.77,150.55l.73-.11.61.1,1,1.39-.22.52-3-.78Z" transform="translate(-18.87 -59.11)"/><path class="cls-15" d="M138.46,112.86l6.31,1.39,0,.54-1.23.77.09.43,10,2.2.14-.38-2.72-1.26a11.65,11.65,0,0,1,2.09,0,43.48,43.48,0,0,0,19.69-1.45c2.67-.78,5.26-1.79,7.88-2.73.27-.1.47-.41.7-.63l2.42.87a24.42,24.42,0,0,1-11.67,11.49c-7,3.42-14.36,3.71-21.85,2.09a11.52,11.52,0,0,1-2.55-1.26l-.31-.29-.3-.3-.28-.32-.29-.31c-1.44-1.34-2.85-2.71-4.35-4-.24-.2-.86.06-1.31.11l0,.46,5.62,3.49.32.28.33.27.3.3.29.62a3.72,3.72,0,0,1-1.36.05c-3.85-1.4-7.67-2.86-11.51-4.3Zm4,4.62v.43l8.16,4.56.33-.52c-2.38-1.56-4.75-3.14-7.17-4.64C143.43,117.13,142.85,117.41,142.41,117.48Z" transform="translate(-18.87 -59.11)"/><path class="cls-28" d="M151.07,116.55l2.72,1.26-.14.38-10-2.2-.09-.43,1.23-.77Z" transform="translate(-18.87 -59.11)"/><path class="cls-23" d="M147.77,124.93a11.52,11.52,0,0,0,2.55,1.26c7.5,1.62,14.87,1.33,21.85-2.09a24.42,24.42,0,0,0,11.67-11.49l1.5.6-.91,2.4-3.91,5.12-1.5,1.78-5.46,3.89-1.45.66c-1.26.43-2.5.92-3.77,1.27-1.62.45-3.27.79-4.9,1.18l-1.56.26c-2.72.09-5.45.21-8.17.27a9.64,9.64,0,0,1-1.73-.27l-1.83-.28L140,126.74l-1.5-.62-4.23-2.24.68-2.89c3.83,1.44,7.66,2.9,11.51,4.3a3.72,3.72,0,0,0,1.36-.05Z" transform="translate(-18.87 -59.11)"/><path class="cls-23" d="M115,80.51a34.08,34.08,0,0,0-2.12,4.24c-1.32,3.85-.49,7.67.49,11.45a35.72,35.72,0,0,0,11.75,18.53,78.17,78.17,0,0,0,7.14,4.87l1.35.89-.68,2.7-4.44-2.46-1.15-.61c-1.49-1.38-3-2.77-4.46-4.14-.61-.56-1.26-1.08-1.9-1.61l-.87-.86c-1.08-1.55-2.17-3.08-3.24-4.64-.37-.53-.68-1.11-1-1.66l-1.14-1.51-3-7.55-.39-1.5-.6-5.34q0-.93,0-1.85l.9-5,2.15-4.27Z" transform="translate(-18.87 -59.11)"/><path class="cls-28" d="M133,123.19l.68-2.7c.41-.95.78-1.91,1.24-2.84.91-1.82,1.86-3.61,2.8-5.41l.78.62L134.9,121l-.67,2.89Z" transform="translate(-18.87 -59.11)"/><path class="cls-28" d="M121.88,106.16c4.07,1.1,8.15,2.17,11.25,5.16l-.31.6Z" transform="translate(-18.87 -59.11)"/><path class="cls-28" d="M124,111.32c3.08-.26,6.64,1,7.64,2.81C128.73,113.67,126.68,111.61,124,111.32Z" transform="translate(-18.87 -59.11)"/><path class="cls-30" d="M142.58,89.54c-1.81,0-3.68-.38-4.28-2.17s.56-3.34,1.87-4.61a3.55,3.55,0,0,1,4.26-.76c1.85,1,2.94,1.94,2.76,3.67a4,4,0,0,1-2.71,3.59A10.31,10.31,0,0,1,142.58,89.54Z" transform="translate(-18.87 -59.11)"/><path class="cls-28" d="M142.41,117.48c.44-.07,1-.35,1.31-.17,2.42,1.5,4.78,3.08,7.17,4.64l-.33.52-8.16-4.56Z" transform="translate(-18.87 -59.11)"/><path class="cls-28" d="M146.52,123.77l-5.62-3.49,0-.46c.44,0,1.07-.31,1.31-.11,1.5,1.27,2.91,2.65,4.35,4Z" transform="translate(-18.87 -59.11)"/><path class="cls-28" d="M147.77,124.93v.31l-.29-.62,0,0Z" transform="translate(-18.87 -59.11)"/><path class="cls-28" d="M146.84,124.05l-.32-.28.07-.07.29.31Z" transform="translate(-18.87 -59.11)"/><path class="cls-28" d="M146.88,124l.28.32h0l-.33-.27Z" transform="translate(-18.87 -59.11)"/><path class="cls-28" d="M147.47,124.62l-.3-.3h0l.3.3Z" transform="translate(-18.87 -59.11)"/></svg>