<?xml version="1.0" encoding="utf-8"?>
<!-- Generator: Adobe Illustrator 21.0.2, SVG Export Plug-In . SVG Version: 6.00 Build 0)  -->
<svg version="1.1" id="Capa_1" xmlns="http://www.w3.org/2000/svg" xmlns:xlink="http://www.w3.org/1999/xlink" x="0px" y="0px"
	 viewBox="0 0 425.2 425.2" style="enable-background:new 0 0 425.2 425.2;" xml:space="preserve">
<style type="text/css">
	.st0{fill:#B6A3CC;stroke:#FFFFFF;stroke-miterlimit:10;}
	.st1{fill:#EAE086;stroke:#E5E4E3;stroke-miterlimit:10;}
</style>
<path class="st0" d="M252.2,321.1c-40.9-40.9-39.7-108.6-39.7-108.6s67.6-1.3,108.6,39.7s39.7,108.6,39.7,108.6
	S293.2,362.1,252.2,321.1z"/>
<path class="st0" d="M321.1,172.9c-40.9,40.9-108.6,39.7-108.6,39.7s-1.3-67.6,39.7-108.6s108.6-39.6,108.6-39.6
	S362.1,132,321.1,172.9z"/>
<path class="st0" d="M172.9,104c40.9,40.9,39.7,108.6,39.7,108.6s-67.6,1.3-108.6-39.6S64.3,64.4,64.3,64.4S132,63.1,172.9,104z"/>
<title>Mesa de trabajo 1</title>
<path class="st0" d="M261.3,107.8c0,57.9-48.7,104.8-48.7,104.8s-48.7-46.9-48.7-104.8S212.6,3,212.6,3S261.3,49.9,261.3,107.8z"/>
<path class="st0" d="M107.8,163.9c57.9,0,104.8,48.7,104.8,48.7s-46.9,48.7-104.8,48.7S3,212.6,3,212.6S49.9,163.9,107.8,163.9z"/>
<path class="st0" d="M104,252.2c40.9-40.9,108.6-39.7,108.6-39.7s1.3,67.6-39.7,108.6S64.3,360.8,64.3,360.8S63.1,293.2,104,252.2z"
	/>
<path class="st0" d="M163.9,317.4c0-57.9,48.7-104.8,48.7-104.8s48.7,46.9,48.7,104.8s-48.7,104.8-48.7,104.8
	S163.9,375.3,163.9,317.4z"/>
<path class="st0" d="M317.4,261.3c-57.9,0-104.8-48.7-104.8-48.7s46.9-48.7,104.8-48.7s104.8,48.7,104.8,48.7
	S375.3,261.3,317.4,261.3z"/>
<circle class="st1" cx="212.6" cy="212.6" r="29.3"/>
</svg>
