<?xml version="1.0" encoding="utf-8"?>
<!-- Generator: Adobe Illustrator 21.0.2, SVG Export Plug-In . SVG Version: 6.00 Build 0)  -->
<svg version="1.1" id="Capa_1" xmlns="http://www.w3.org/2000/svg" xmlns:xlink="http://www.w3.org/1999/xlink" x="0px" y="0px"
	 viewBox="0 0 55 47" style="enable-background:new 0 0 55 47;" xml:space="preserve">
<style type="text/css">
	.st0{fill:#FFFFFF;}
</style>
<g>
	<path class="st0" d="M8.4,18.1c0.4,0.4,0.6,0.6,0.9,0.8c2.9,2.7,5.8,5.4,8.7,8.1c0.2,0.2,0.3,0.5,0.3,0.7
		c-0.7,3.7-1.4,7.4-2.2,11.1c-0.2,1-0.4,1.9-0.6,3.1c0.3-0.2,0.5-0.3,0.7-0.5c3.4-2.3,6.9-4.7,10.3-7c0.4-0.3,0.7-0.3,1.1,0
		c3.2,2.2,6.4,4.4,9.7,6.6c0.4,0.3,0.8,0.5,1.3,0.9c-0.1-0.3-0.1-0.5-0.1-0.6c-0.9-4.4-1.9-8.9-2.8-13.3c-0.1-0.5,0-0.8,0.4-1.1
		c2.7-2.3,5.3-4.6,7.9-6.9c0.6-0.5,1.1-1,1.7-1.5c0,0,0-0.1-0.1-0.1c-0.4,0-0.8,0-1.2,0c-3.7,0-7.4-0.1-11-0.1
		c-0.4,0-0.6-0.1-0.8-0.5c-1.7-4-3.4-8.1-5.1-12.1c-0.1-0.3-0.3-0.7-0.5-1.1c-0.2,0.3-0.3,0.6-0.4,0.8c-1.7,4.1-3.4,8.1-5.1,12.2
		c-0.3,0.6-0.5,0.8-1.2,0.8C16.5,18.1,12.5,18.1,8.4,18.1z"/>
	<path d="M8.4,18.1c4.2,0,8.2,0,12.1,0c0.7,0,1-0.2,1.2-0.8c1.7-4.1,3.4-8.1,5.1-12.2c0.1-0.2,0.2-0.4,0.4-0.8
		c0.2,0.4,0.3,0.8,0.5,1.1c1.7,4,3.4,8.1,5.1,12.1c0.2,0.4,0.4,0.5,0.8,0.5c3.7,0,7.4,0.1,11,0.1c0.4,0,0.8,0,1.2,0
		c0,0,0,0.1,0.1,0.1c-0.6,0.5-1.1,1-1.7,1.5c-2.6,2.3-5.3,4.6-7.9,6.9c-0.4,0.3-0.5,0.6-0.4,1.1c0.9,4.4,1.9,8.9,2.8,13.3
		c0,0.2,0.1,0.3,0.1,0.6c-0.5-0.3-0.9-0.6-1.3-0.9c-3.2-2.2-6.5-4.4-9.7-6.6c-0.4-0.3-0.7-0.3-1.1,0c-3.4,2.4-6.9,4.7-10.3,7
		c-0.2,0.1-0.4,0.3-0.7,0.5c0.2-1.1,0.4-2.1,0.6-3.1c0.7-3.7,1.5-7.4,2.2-11.1c0-0.2-0.1-0.5-0.3-0.7c-2.9-2.7-5.8-5.4-8.7-8.1
		C9,18.7,8.7,18.5,8.4,18.1z"/>
</g>
</svg>
